<mxfile host="app.diagrams.net" modified="2024-05-15T18:16:54.258Z" agent="Mozilla/5.0 (Windows NT 10.0; Win64; x64) AppleWebKit/537.36 (KHTML, like Gecko) Chrome/124.0.0.0 Safari/537.36" version="24.4.1" etag="Ofo5gK4tHXxDNp-YzXBx" type="github">
  <diagram name="PÃ¡gina-1" id="yH7I-XFHbTADjN4klKN3">
    <mxGraphModel>
      <root>
        <mxCell id="0" />
        <mxCell id="1" parent="0" />
      </root>
    </mxGraphModel>
  </diagram>
</mxfile>
